<svg xmlns="http://www.w3.org/2000/svg" viewBox="0 0 24 24" fill="none">
  <path d="M12.22 2h-.44a2 2 0 0 0-1.986 1.78l-.106 1.018a8 8 0 0 0-1.414.59l-.82-.62a2 2 0 0 0-2.63.144l-.312.312a2 2 0 0 0-.145 2.63l.62.82a8 8 0 0 0-.59 1.414l-1.017.106A2 2 0 0 0 2 11.78v.44a2 2 0 0 0 1.78 1.986l1.018.106a8 8 0 0 0 .59 1.414l-.62.82a2 2 0 0 0 .144 2.63l.312.312a2 2 0 0 0 2.63.145l.82-.62a8 8 0 0 0 1.414.59l.106 1.017A2 2 0 0 0 11.78 22h.44a2 2 0 0 0 1.986-1.78l.106-1.018a8 8 0 0 0 1.414-.59l.82.62a2 2 0 0 0 2.63-.144l.312-.312a2 2 0 0 0 .145-2.63l-.62-.82a8 8 0 0 0 .59-1.414l1.017-.106A2 2 0 0 0 22 12.22v-.44a2 2 0 0 0-1.78-1.986l-1.018-.106a8 8 0 0 0-.59-1.414l.62-.82a2 2 0 0 0-.144-2.63l-.312-.312a2 2 0 0 0-2.63-.145l-.82.62a8 8 0 0 0-1.414-.59l-.106-1.017A2 2 0 0 0 12.22 2z" stroke="#334155" stroke-width="1.6" stroke-linecap="round" stroke-linejoin="round"/>
  <circle cx="12" cy="12" r="3.2" stroke="#334155" stroke-width="1.8"/>
</svg>
